<svg xmlns="http://www.w3.org/2000/svg" xmlns:xlink="http://www.w3.org/1999/xlink" contentStyleType="text/css" data-diagram-type="SEQUENCE" height="386px" preserveAspectRatio="none" style="width:719px;height:386px;background:#FFFFFF;" version="1.1" viewBox="0 0 719 386" width="719px" zoomAndPan="magnify"><defs/><g><g><title>Cliente</title><rect fill="#000000" fill-opacity="0.00000" height="223.9297" width="8" x="28.5718" y="81.2969"/><line style="stroke:#181818;stroke-width:0.5;stroke-dasharray:5.0,5.0;" x1="32" x2="32" y1="81.2969" y2="305.2266"/></g><g><title>App Hotel</title><rect fill="#000000" fill-opacity="0.00000" height="223.9297" width="8" x="344.8687" y="81.2969"/><line style="stroke:#181818;stroke-width:0.5;stroke-dasharray:5.0,5.0;" x1="348.4258" x2="348.4258" y1="81.2969" y2="305.2266"/></g><g><title>Recepcion</title><rect fill="#000000" fill-opacity="0.00000" height="223.9297" width="8" x="528.3535" y="81.2969"/><line style="stroke:#181818;stroke-width:0.5;stroke-dasharray:5.0,5.0;" x1="532.0718" x2="532.0718" y1="81.2969" y2="305.2266"/></g><g><title>Sistema Parking</title><rect fill="#000000" fill-opacity="0.00000" height="223.9297" width="8" x="645.3223" y="81.2969"/><line style="stroke:#181818;stroke-width:0.5;stroke-dasharray:5.0,5.0;" x1="648.6353" x2="648.6353" y1="81.2969" y2="305.2266"/></g><g class="participant participant-head" data-participant="Cliente"><text fill="#000000" font-family="sans-serif" font-size="14" lengthAdjust="spacing" textLength="49.1436" x="5" y="77.9951">Cliente</text><ellipse cx="32.5718" cy="13.5" fill="#E2E2F0" rx="8" ry="8" style="stroke:#181818;stroke-width:0.5;"/><path d="M32.5718,21.5 L32.5718,48.5 M19.5718,29.5 L45.5718,29.5 M32.5718,48.5 L19.5718,63.5 M32.5718,48.5 L45.5718,63.5" fill="none" style="stroke:#181818;stroke-width:0.5;"/></g><g class="participant participant-tail" data-participant="Cliente"><text fill="#000000" font-family="sans-serif" font-size="14" lengthAdjust="spacing" textLength="49.1436" x="5" y="317.2217">Cliente</text><ellipse cx="32.5718" cy="329.0234" fill="#E2E2F0" rx="8" ry="8" style="stroke:#181818;stroke-width:0.5;"/><path d="M32.5718,337.0234 L32.5718,364.0234 M19.5718,345.0234 L45.5718,345.0234 M32.5718,364.0234 L19.5718,379.0234 M32.5718,364.0234 L45.5718,379.0234" fill="none" style="stroke:#181818;stroke-width:0.5;"/></g><g class="participant participant-head" data-participant="App"><rect fill="#E2E2F0" height="30.2969" rx="2.5" ry="2.5" style="stroke:#181818;stroke-width:0.5;" width="82.8857" x="307.4258" y="50"/><text fill="#000000" font-family="sans-serif" font-size="14" lengthAdjust="spacing" textLength="68.8857" x="314.4258" y="69.9951">App Hotel</text></g><g class="participant participant-tail" data-participant="App"><rect fill="#E2E2F0" height="30.2969" rx="2.5" ry="2.5" style="stroke:#181818;stroke-width:0.5;" width="82.8857" x="307.4258" y="304.2266"/><text fill="#000000" font-family="sans-serif" font-size="14" lengthAdjust="spacing" textLength="68.8857" x="314.4258" y="324.2217">App Hotel</text></g><g class="participant participant-head" data-participant="Recepcion"><rect fill="#E2E2F0" height="30.2969" rx="2.5" ry="2.5" style="stroke:#181818;stroke-width:0.5;" width="86.5635" x="489.0718" y="50"/><text fill="#000000" font-family="sans-serif" font-size="14" lengthAdjust="spacing" textLength="72.5635" x="496.0718" y="69.9951">Recepcion</text></g><g class="participant participant-tail" data-participant="Recepcion"><rect fill="#E2E2F0" height="30.2969" rx="2.5" ry="2.5" style="stroke:#181818;stroke-width:0.5;" width="86.5635" x="489.0718" y="304.2266"/><text fill="#000000" font-family="sans-serif" font-size="14" lengthAdjust="spacing" textLength="72.5635" x="496.0718" y="324.2217">Recepcion</text></g><g class="participant participant-head" data-participant="Parking"><rect fill="#E2E2F0" height="30.2969" rx="2.5" ry="2.5" style="stroke:#181818;stroke-width:0.5;" width="127.374" x="585.6353" y="50"/><text fill="#000000" font-family="sans-serif" font-size="14" lengthAdjust="spacing" textLength="113.374" x="592.6353" y="69.9951">Sistema Parking</text></g><g class="participant participant-tail" data-participant="Parking"><rect fill="#E2E2F0" height="30.2969" rx="2.5" ry="2.5" style="stroke:#181818;stroke-width:0.5;" width="127.374" x="585.6353" y="304.2266"/><text fill="#000000" font-family="sans-serif" font-size="14" lengthAdjust="spacing" textLength="113.374" x="592.6353" y="324.2217">Sistema Parking</text></g><g class="message" data-participant-1="Cliente" data-participant-2="App"><polygon fill="#181818" points="336.8687,108.4297,346.8687,112.4297,336.8687,116.4297,340.8687,112.4297" style="stroke:#181818;stroke-width:1;"/><line style="stroke:#181818;stroke-width:1;" x1="32.5718" x2="342.8687" y1="112.4297" y2="112.4297"/><text fill="#000000" font-family="sans-serif" font-size="13" lengthAdjust="spacing" textLength="159.8213" x="39.5718" y="107.3638">Solicita "Late check-out"</text></g><g class="message" data-participant-1="App" data-participant-2="Recepcion"><polygon fill="#181818" points="520.3535,137.5625,530.3535,141.5625,520.3535,145.5625,524.3535,141.5625" style="stroke:#181818;stroke-width:1;"/><line style="stroke:#181818;stroke-width:1;" x1="348.8687" x2="526.3535" y1="141.5625" y2="141.5625"/><text fill="#000000" font-family="sans-serif" font-size="13" lengthAdjust="spacing" textLength="134.6846" x="355.8687" y="136.4966">Valida disponibilidad</text></g><g class="message" data-participant-1="Recepcion" data-participant-2="App"><polygon fill="#181818" points="359.8687,166.6953,349.8687,170.6953,359.8687,174.6953,355.8687,170.6953" style="stroke:#181818;stroke-width:1;"/><line style="stroke:#181818;stroke-width:1;stroke-dasharray:2.0,2.0;" x1="353.8687" x2="531.3535" y1="170.6953" y2="170.6953"/><text fill="#000000" font-family="sans-serif" font-size="13" lengthAdjust="spacing" textLength="159.4849" x="365.8687" y="165.6294">Confirma 1h extra gratis</text></g><g class="message" data-participant-1="App" data-participant-2="Cliente"><polygon fill="#181818" points="43.5718,195.8281,33.5718,199.8281,43.5718,203.8281,39.5718,199.8281" style="stroke:#181818;stroke-width:1;"/><line style="stroke:#181818;stroke-width:1;" x1="37.5718" x2="347.8687" y1="199.8281" y2="199.8281"/><text fill="#000000" font-family="sans-serif" font-size="13" lengthAdjust="spacing" textLength="144.4917" x="49.5718" y="194.7622">Notifica nuevo horario</text></g><g class="message" data-participant-1="Cliente" data-participant-2="Parking"><polygon fill="#181818" points="637.3223,224.9609,647.3223,228.9609,637.3223,232.9609,641.3223,228.9609" style="stroke:#181818;stroke-width:1;"/><line style="stroke:#181818;stroke-width:1;" x1="32.5718" x2="643.3223" y1="228.9609" y2="228.9609"/><text fill="#000000" font-family="sans-serif" font-size="13" lengthAdjust="spacing" textLength="175.8237" x="39.5718" y="223.895">Extiende tiempo (opcional)</text></g><g class="message" data-participant-1="Parking" data-participant-2="App"><polygon fill="#181818" points="359.8687,254.0938,349.8687,258.0938,359.8687,262.0938,355.8687,258.0938" style="stroke:#181818;stroke-width:1;"/><line style="stroke:#181818;stroke-width:1;stroke-dasharray:2.0,2.0;" x1="353.8687" x2="648.3223" y1="258.0938" y2="258.0938"/><text fill="#000000" font-family="sans-serif" font-size="13" lengthAdjust="spacing" textLength="109.8271" x="365.8687" y="253.0278">Actualiza factura</text></g><g class="message" data-participant-1="App" data-participant-2="Cliente"><polygon fill="#181818" points="43.5718,283.2266,33.5718,287.2266,43.5718,291.2266,39.5718,287.2266" style="stroke:#181818;stroke-width:1;"/><line style="stroke:#181818;stroke-width:1;" x1="37.5718" x2="347.8687" y1="287.2266" y2="287.2266"/><text fill="#000000" font-family="sans-serif" font-size="13" lengthAdjust="spacing" textLength="292.2969" x="49.5718" y="282.1606">Env&#237;a factura detallada + puntos fidelizaci&#243;n</text></g><!--SRC=[POyxQiD048Pxd-97LK9maLP5m1X3YX123Eadkojhy7fdMOsCoPrIvGY-M4P6ilAeTdRu_iUGKobOHmv90x38L9GTPqgAQfKp7aL3h40TXjzlu3Mua1rB-YlSSgVXG7YXikUqkyZ7sT355BTy64nhR2MQL0dL4zdQjS7jbz9hPV2GQjmrgiORHVO4prsMnEyy_BoHSvlbPBoMr72n8lSjmaaBOLT8kPjznoerdaMvOKT8VJWAMYbKM0pyKNOyeSRcfBRq0VOSik16Bi4KRqqm7NfjiNBQM-SFGaCsMel_yPjqF7_EW0zACPATUOVS9vKE3Vimc3W-VwLl]--></g></svg>