<svg xmlns="http://www.w3.org/2000/svg" xmlns:xlink="http://www.w3.org/1999/xlink" contentStyleType="text/css" data-diagram-type="SEQUENCE" height="473px" preserveAspectRatio="none" style="width:904px;height:473px;background:#FFFFFF;" version="1.1" viewBox="0 0 904 473" width="904px" zoomAndPan="magnify"><defs/><g><g><title>Cliente</title><rect fill="#000000" fill-opacity="0.00000" height="311.3281" width="8" x="28.5718" y="81.2969"/><line style="stroke:#181818;stroke-width:0.5;stroke-dasharray:5.0,5.0;" x1="32" x2="32" y1="81.2969" y2="392.625"/></g><g><title>App Hotel</title><rect fill="#000000" fill-opacity="0.00000" height="311.3281" width="8" x="322.1885" y="81.2969"/><line style="stroke:#181818;stroke-width:0.5;stroke-dasharray:5.0,5.0;" x1="325.7456" x2="325.7456" y1="81.2969" y2="392.625"/></g><g><title>Recepci&#243;n (Auto)</title><rect fill="#000000" fill-opacity="0.00000" height="311.3281" width="8" x="514.4141" y="81.2969"/><line style="stroke:#181818;stroke-width:0.5;stroke-dasharray:5.0,5.0;" x1="518.1929" x2="518.1929" y1="81.2969" y2="392.625"/></g><g><title>Sistema Habitaciones</title><rect fill="#000000" fill-opacity="0.00000" height="311.3281" width="8" x="674.4971" y="81.2969"/><line style="stroke:#181818;stroke-width:0.5;stroke-dasharray:5.0,5.0;" x1="677.6353" x2="677.6353" y1="81.2969" y2="392.625"/></g><g><title>Sistema Parking</title><rect fill="#000000" fill-opacity="0.00000" height="311.3281" width="8" x="831.0459" y="81.2969"/><line style="stroke:#181818;stroke-width:0.5;stroke-dasharray:5.0,5.0;" x1="834.3589" x2="834.3589" y1="81.2969" y2="392.625"/></g><g class="participant participant-head" data-participant="Cliente"><text fill="#000000" font-family="sans-serif" font-size="14" lengthAdjust="spacing" textLength="49.1436" x="5" y="77.9951">Cliente</text><ellipse cx="32.5718" cy="13.5" fill="#E2E2F0" rx="8" ry="8" style="stroke:#181818;stroke-width:0.5;"/><path d="M32.5718,21.5 L32.5718,48.5 M19.5718,29.5 L45.5718,29.5 M32.5718,48.5 L19.5718,63.5 M32.5718,48.5 L45.5718,63.5" fill="none" style="stroke:#181818;stroke-width:0.5;"/></g><g class="participant participant-tail" data-participant="Cliente"><text fill="#000000" font-family="sans-serif" font-size="14" lengthAdjust="spacing" textLength="49.1436" x="5" y="404.6201">Cliente</text><ellipse cx="32.5718" cy="416.4219" fill="#E2E2F0" rx="8" ry="8" style="stroke:#181818;stroke-width:0.5;"/><path d="M32.5718,424.4219 L32.5718,451.4219 M19.5718,432.4219 L45.5718,432.4219 M32.5718,451.4219 L19.5718,466.4219 M32.5718,451.4219 L45.5718,466.4219" fill="none" style="stroke:#181818;stroke-width:0.5;"/></g><g class="participant participant-head" data-participant="App"><rect fill="#E2E2F0" height="30.2969" rx="2.5" ry="2.5" style="stroke:#181818;stroke-width:0.5;" width="82.8857" x="284.7456" y="50"/><text fill="#000000" font-family="sans-serif" font-size="14" lengthAdjust="spacing" textLength="68.8857" x="291.7456" y="69.9951">App Hotel</text></g><g class="participant participant-tail" data-participant="App"><rect fill="#E2E2F0" height="30.2969" rx="2.5" ry="2.5" style="stroke:#181818;stroke-width:0.5;" width="82.8857" x="284.7456" y="391.625"/><text fill="#000000" font-family="sans-serif" font-size="14" lengthAdjust="spacing" textLength="68.8857" x="291.7456" y="411.6201">App Hotel</text></g><g class="participant participant-head" data-participant="Recepcion"><rect fill="#E2E2F0" height="30.2969" rx="2.5" ry="2.5" style="stroke:#181818;stroke-width:0.5;" width="134.4424" x="451.1929" y="50"/><text fill="#000000" font-family="sans-serif" font-size="14" lengthAdjust="spacing" textLength="120.4424" x="458.1929" y="69.9951">Recepci&#243;n (Auto)</text></g><g class="participant participant-tail" data-participant="Recepcion"><rect fill="#E2E2F0" height="30.2969" rx="2.5" ry="2.5" style="stroke:#181818;stroke-width:0.5;" width="134.4424" x="451.1929" y="391.625"/><text fill="#000000" font-family="sans-serif" font-size="14" lengthAdjust="spacing" textLength="120.4424" x="458.1929" y="411.6201">Recepci&#243;n (Auto)</text></g><g class="participant participant-head" data-participant="Habitacion"><rect fill="#E2E2F0" height="30.2969" rx="2.5" ry="2.5" style="stroke:#181818;stroke-width:0.5;" width="165.7236" x="595.6353" y="50"/><text fill="#000000" font-family="sans-serif" font-size="14" lengthAdjust="spacing" textLength="151.7236" x="602.6353" y="69.9951">Sistema Habitaciones</text></g><g class="participant participant-tail" data-participant="Habitacion"><rect fill="#E2E2F0" height="30.2969" rx="2.5" ry="2.5" style="stroke:#181818;stroke-width:0.5;" width="165.7236" x="595.6353" y="391.625"/><text fill="#000000" font-family="sans-serif" font-size="14" lengthAdjust="spacing" textLength="151.7236" x="602.6353" y="411.6201">Sistema Habitaciones</text></g><g class="participant participant-head" data-participant="Parking"><rect fill="#E2E2F0" height="30.2969" rx="2.5" ry="2.5" style="stroke:#181818;stroke-width:0.5;" width="127.374" x="771.3589" y="50"/><text fill="#000000" font-family="sans-serif" font-size="14" lengthAdjust="spacing" textLength="113.374" x="778.3589" y="69.9951">Sistema Parking</text></g><g class="participant participant-tail" data-participant="Parking"><rect fill="#E2E2F0" height="30.2969" rx="2.5" ry="2.5" style="stroke:#181818;stroke-width:0.5;" width="127.374" x="771.3589" y="391.625"/><text fill="#000000" font-family="sans-serif" font-size="14" lengthAdjust="spacing" textLength="113.374" x="778.3589" y="411.6201">Sistema Parking</text></g><g class="message" data-participant-1="Cliente" data-participant-2="App"><polygon fill="#181818" points="314.1885,108.4297,324.1885,112.4297,314.1885,116.4297,318.1885,112.4297" style="stroke:#181818;stroke-width:1;"/><line style="stroke:#181818;stroke-width:1;" x1="32.5718" x2="320.1885" y1="112.4297" y2="112.4297"/><text fill="#000000" font-family="sans-serif" font-size="13" lengthAdjust="spacing" textLength="269.6167" x="39.5718" y="107.3638">Selecciona habitaci&#243;n + estacionamiento</text></g><g class="message" data-participant-1="App" data-participant-2="Recepcion"><polygon fill="#181818" points="506.4141,137.5625,516.4141,141.5625,506.4141,145.5625,510.4141,141.5625" style="stroke:#181818;stroke-width:1;"/><line style="stroke:#181818;stroke-width:1;" x1="326.1885" x2="512.4141" y1="141.5625" y2="141.5625"/><text fill="#000000" font-family="sans-serif" font-size="13" lengthAdjust="spacing" textLength="168.2256" x="333.1885" y="136.4966">Valida disponibilidad (QR)</text></g><g class="message" data-participant-1="Recepcion" data-participant-2="Parking"><polygon fill="#181818" points="823.0459,166.6953,833.0459,170.6953,823.0459,174.6953,827.0459,170.6953" style="stroke:#181818;stroke-width:1;"/><line style="stroke:#181818;stroke-width:1;" x1="518.4141" x2="829.0459" y1="170.6953" y2="170.6953"/><text fill="#000000" font-family="sans-serif" font-size="13" lengthAdjust="spacing" textLength="149.8364" x="525.4141" y="165.6294">Asigna plaza (si aplica)</text></g><g class="message" data-participant-1="Parking" data-participant-2="Recepcion"><polygon fill="#181818" points="529.4141,195.8281,519.4141,199.8281,529.4141,203.8281,525.4141,199.8281" style="stroke:#181818;stroke-width:1;"/><line style="stroke:#181818;stroke-width:1;stroke-dasharray:2.0,2.0;" x1="523.4141" x2="834.0459" y1="199.8281" y2="199.8281"/><text fill="#000000" font-family="sans-serif" font-size="13" lengthAdjust="spacing" textLength="161.7319" x="535.4141" y="194.7622">Confirma plaza (ej: "B3")</text></g><g class="message" data-participant-1="Recepcion" data-participant-2="Habitacion"><polygon fill="#181818" points="666.4971,224.9609,676.4971,228.9609,666.4971,232.9609,670.4971,228.9609" style="stroke:#181818;stroke-width:1;"/><line style="stroke:#181818;stroke-width:1;" x1="518.4141" x2="672.4971" y1="228.9609" y2="228.9609"/><text fill="#000000" font-family="sans-serif" font-size="13" lengthAdjust="spacing" textLength="125.1567" x="525.4141" y="223.895">Bloquea habitaci&#243;n</text></g><g class="message" data-participant-1="Habitacion" data-participant-2="Recepcion"><polygon fill="#181818" points="529.4141,254.0938,519.4141,258.0938,529.4141,262.0938,525.4141,258.0938" style="stroke:#181818;stroke-width:1;"/><line style="stroke:#181818;stroke-width:1;stroke-dasharray:2.0,2.0;" x1="523.4141" x2="677.4971" y1="258.0938" y2="258.0938"/><text fill="#000000" font-family="sans-serif" font-size="13" lengthAdjust="spacing" textLength="100.1914" x="535.4141" y="253.0278">Llave RFID lista</text></g><g class="message" data-participant-1="Recepcion" data-participant-2="App"><polygon fill="#181818" points="337.1885,283.2266,327.1885,287.2266,337.1885,291.2266,333.1885,287.2266" style="stroke:#181818;stroke-width:1;"/><line style="stroke:#181818;stroke-width:1;stroke-dasharray:2.0,2.0;" x1="331.1885" x2="517.4141" y1="287.2266" y2="287.2266"/><text fill="#000000" font-family="sans-serif" font-size="13" lengthAdjust="spacing" textLength="128.6226" x="343.1885" y="282.1606">Env&#237;a QR de acceso</text></g><g class="message" data-participant-1="App" data-participant-2="Cliente"><polygon fill="#181818" points="43.5718,312.3594,33.5718,316.3594,43.5718,320.3594,39.5718,316.3594" style="stroke:#181818;stroke-width:1;"/><line style="stroke:#181818;stroke-width:1;" x1="37.5718" x2="325.1885" y1="316.3594" y2="316.3594"/><text fill="#000000" font-family="sans-serif" font-size="13" lengthAdjust="spacing" textLength="185.3643" x="49.5718" y="311.2935">Muestra QR + mapa parking</text></g><g class="message" data-participant-1="Cliente" data-participant-2="Parking"><polygon fill="#181818" points="823.0459,341.4922,833.0459,345.4922,823.0459,349.4922,827.0459,345.4922" style="stroke:#181818;stroke-width:1;"/><line style="stroke:#181818;stroke-width:1;" x1="32.5718" x2="829.0459" y1="345.4922" y2="345.4922"/><text fill="#000000" font-family="sans-serif" font-size="13" lengthAdjust="spacing" textLength="142.8413" x="39.5718" y="340.4263">Escanea QR (entrada)</text></g><g class="message" data-participant-1="Parking" data-participant-2="Cliente"><polygon fill="#181818" points="43.5718,370.625,33.5718,374.625,43.5718,378.625,39.5718,374.625" style="stroke:#181818;stroke-width:1;"/><line style="stroke:#181818;stroke-width:1;stroke-dasharray:2.0,2.0;" x1="37.5718" x2="834.0459" y1="374.625" y2="374.625"/><text fill="#000000" font-family="sans-serif" font-size="13" lengthAdjust="spacing" textLength="82.8369" x="49.5718" y="369.5591">Abre barrera</text></g><!--SRC=[TP3DJiCm48JlVOfHJgcgdhZbW9IMeYA1H5E9-yPPYi6nZUtsm3jnuX7wOjWXJV_4pJypixCVYM0Svago3WoCBBaWXRIa0xBIMYnDO9M1FDBjGb2nO2la_aSZBxV1Z3jX_shqfNmjVU2MiAHQ1aeAzftZ-F2VvPdSXzIRJjsVetHqA3wzJVKAh5cnI3c4jpupbPk0_Ly-jSbWeZUj4sr3sG8lf6H3QAItHijQfbk3V5MDe_ouL3Jr3GgKNcxYBAleYv1x2R9A2ag6Gylf-P2vqQ_IjOE7tmjaivliQiQHIO6PCfzRFjy9enDg5qCU5UqOrVt37LG4IEVP1rWBlTj_4rOL6WO9mVw4Iq-smDCsidETR8AMR6m-y3_1Fo1PU46QEtqUFnqrLpY6xB9sZ9gSOqU_]--></g></svg>