<svg xmlns="http://www.w3.org/2000/svg" xmlns:xlink="http://www.w3.org/1999/xlink" contentStyleType="text/css" data-diagram-type="SEQUENCE" height="444px" preserveAspectRatio="none" style="width:614px;height:444px;background:#FFFFFF;" version="1.1" viewBox="0 0 614 444" width="614px" zoomAndPan="magnify"><defs/><g><g><title>Cliente</title><rect fill="#000000" fill-opacity="0.00000" height="282.1953" width="8" x="28.5718" y="81.2969"/><line style="stroke:#181818;stroke-width:0.5;stroke-dasharray:5.0,5.0;" x1="32" x2="32" y1="81.2969" y2="363.4922"/></g><g><title>App Hotel</title><rect fill="#000000" fill-opacity="0.00000" height="282.1953" width="8" x="247.1211" y="81.2969"/><line style="stroke:#181818;stroke-width:0.5;stroke-dasharray:5.0,5.0;" x1="250.6782" x2="250.6782" y1="81.2969" y2="363.4922"/></g><g><title>Sistema Parking</title><rect fill="#000000" fill-opacity="0.00000" height="282.1953" width="8" x="454.1494" y="81.2969"/><line style="stroke:#181818;stroke-width:0.5;stroke-dasharray:5.0,5.0;" x1="457.4624" x2="457.4624" y1="81.2969" y2="363.4922"/></g><g><title>C&#225;maras</title><rect fill="#000000" fill-opacity="0.00000" height="282.1953" width="8" x="565.9365" y="81.2969"/><line style="stroke:#181818;stroke-width:0.5;stroke-dasharray:5.0,5.0;" x1="569.8364" x2="569.8364" y1="81.2969" y2="363.4922"/></g><g class="participant participant-head" data-participant="Cliente"><text fill="#000000" font-family="sans-serif" font-size="14" lengthAdjust="spacing" textLength="49.1436" x="5" y="77.9951">Cliente</text><ellipse cx="32.5718" cy="13.5" fill="#E2E2F0" rx="8" ry="8" style="stroke:#181818;stroke-width:0.5;"/><path d="M32.5718,21.5 L32.5718,48.5 M19.5718,29.5 L45.5718,29.5 M32.5718,48.5 L19.5718,63.5 M32.5718,48.5 L45.5718,63.5" fill="none" style="stroke:#181818;stroke-width:0.5;"/></g><g class="participant participant-tail" data-participant="Cliente"><text fill="#000000" font-family="sans-serif" font-size="14" lengthAdjust="spacing" textLength="49.1436" x="5" y="375.4873">Cliente</text><ellipse cx="32.5718" cy="387.2891" fill="#E2E2F0" rx="8" ry="8" style="stroke:#181818;stroke-width:0.5;"/><path d="M32.5718,395.2891 L32.5718,422.2891 M19.5718,403.2891 L45.5718,403.2891 M32.5718,422.2891 L19.5718,437.2891 M32.5718,422.2891 L45.5718,437.2891" fill="none" style="stroke:#181818;stroke-width:0.5;"/></g><g class="participant participant-head" data-participant="App"><rect fill="#E2E2F0" height="30.2969" rx="2.5" ry="2.5" style="stroke:#181818;stroke-width:0.5;" width="82.8857" x="209.6782" y="50"/><text fill="#000000" font-family="sans-serif" font-size="14" lengthAdjust="spacing" textLength="68.8857" x="216.6782" y="69.9951">App Hotel</text></g><g class="participant participant-tail" data-participant="App"><rect fill="#E2E2F0" height="30.2969" rx="2.5" ry="2.5" style="stroke:#181818;stroke-width:0.5;" width="82.8857" x="209.6782" y="362.4922"/><text fill="#000000" font-family="sans-serif" font-size="14" lengthAdjust="spacing" textLength="68.8857" x="216.6782" y="382.4873">App Hotel</text></g><g class="participant participant-head" data-participant="Parking"><rect fill="#E2E2F0" height="30.2969" rx="2.5" ry="2.5" style="stroke:#181818;stroke-width:0.5;" width="127.374" x="394.4624" y="50"/><text fill="#000000" font-family="sans-serif" font-size="14" lengthAdjust="spacing" textLength="113.374" x="401.4624" y="69.9951">Sistema Parking</text></g><g class="participant participant-tail" data-participant="Parking"><rect fill="#E2E2F0" height="30.2969" rx="2.5" ry="2.5" style="stroke:#181818;stroke-width:0.5;" width="127.374" x="394.4624" y="362.4922"/><text fill="#000000" font-family="sans-serif" font-size="14" lengthAdjust="spacing" textLength="113.374" x="401.4624" y="382.4873">Sistema Parking</text></g><g class="participant participant-head" data-participant="Camaras"><rect fill="#E2E2F0" height="30.2969" rx="2.5" ry="2.5" style="stroke:#181818;stroke-width:0.5;" width="76.2002" x="531.8364" y="50"/><text fill="#000000" font-family="sans-serif" font-size="14" lengthAdjust="spacing" textLength="62.2002" x="538.8364" y="69.9951">C&#225;maras</text></g><g class="participant participant-tail" data-participant="Camaras"><rect fill="#E2E2F0" height="30.2969" rx="2.5" ry="2.5" style="stroke:#181818;stroke-width:0.5;" width="76.2002" x="531.8364" y="362.4922"/><text fill="#000000" font-family="sans-serif" font-size="14" lengthAdjust="spacing" textLength="62.2002" x="538.8364" y="382.4873">C&#225;maras</text></g><g class="message" data-participant-1="Cliente" data-participant-2="App"><polygon fill="#181818" points="239.1211,108.4297,249.1211,112.4297,239.1211,116.4297,243.1211,112.4297" style="stroke:#181818;stroke-width:1;"/><line style="stroke:#181818;stroke-width:1;" x1="32.5718" x2="245.1211" y1="112.4297" y2="112.4297"/><text fill="#000000" font-family="sans-serif" font-size="13" lengthAdjust="spacing" textLength="194.5493" x="39.5718" y="107.3638">Selecciona "Estacionamiento"</text></g><g class="message" data-participant-1="App" data-participant-2="Parking"><polygon fill="#181818" points="446.1494,137.5625,456.1494,141.5625,446.1494,145.5625,450.1494,141.5625" style="stroke:#181818;stroke-width:1;"/><line style="stroke:#181818;stroke-width:1;" x1="251.1211" x2="452.1494" y1="141.5625" y2="141.5625"/><text fill="#000000" font-family="sans-serif" font-size="13" lengthAdjust="spacing" textLength="179.9434" x="258.1211" y="136.4966">Consulta plazas disponibles</text></g><g class="message" data-participant-1="Parking" data-participant-2="App"><polygon fill="#181818" points="262.1211,166.6953,252.1211,170.6953,262.1211,174.6953,258.1211,170.6953" style="stroke:#181818;stroke-width:1;"/><line style="stroke:#181818;stroke-width:1;stroke-dasharray:2.0,2.0;" x1="256.1211" x2="457.1494" y1="170.6953" y2="170.6953"/><text fill="#000000" font-family="sans-serif" font-size="13" lengthAdjust="spacing" textLength="183.0283" x="268.1211" y="165.6294">Devuelve mapa (verde/rojo)</text></g><g class="message" data-participant-1="Cliente" data-participant-2="App"><polygon fill="#181818" points="239.1211,195.8281,249.1211,199.8281,239.1211,203.8281,243.1211,199.8281" style="stroke:#181818;stroke-width:1;"/><line style="stroke:#181818;stroke-width:1;" x1="32.5718" x2="245.1211" y1="199.8281" y2="199.8281"/><text fill="#000000" font-family="sans-serif" font-size="13" lengthAdjust="spacing" textLength="193.7051" x="39.5718" y="194.7622">Elige plaza (ej: "Cubierta B2")</text></g><g class="message" data-participant-1="App" data-participant-2="Camaras"><polygon fill="#181818" points="557.9365,224.9609,567.9365,228.9609,557.9365,232.9609,561.9365,228.9609" style="stroke:#181818;stroke-width:1;"/><line style="stroke:#181818;stroke-width:1;" x1="251.1211" x2="563.9365" y1="228.9609" y2="228.9609"/><text fill="#000000" font-family="sans-serif" font-size="13" lengthAdjust="spacing" textLength="119.8564" x="258.1211" y="223.895">Registra matr&#237;cula</text></g><g class="message" data-participant-1="Camaras" data-participant-2="App"><polygon fill="#181818" points="262.1211,254.0938,252.1211,258.0938,262.1211,262.0938,258.1211,258.0938" style="stroke:#181818;stroke-width:1;"/><line style="stroke:#181818;stroke-width:1;stroke-dasharray:2.0,2.0;" x1="256.1211" x2="568.9365" y1="258.0938" y2="258.0938"/><text fill="#000000" font-family="sans-serif" font-size="13" lengthAdjust="spacing" textLength="59.4331" x="268.1211" y="253.0278">Confirma</text></g><g class="message" data-participant-1="App" data-participant-2="Parking"><polygon fill="#181818" points="446.1494,283.2266,456.1494,287.2266,446.1494,291.2266,450.1494,287.2266" style="stroke:#181818;stroke-width:1;"/><line style="stroke:#181818;stroke-width:1;" x1="251.1211" x2="452.1494" y1="287.2266" y2="287.2266"/><text fill="#000000" font-family="sans-serif" font-size="13" lengthAdjust="spacing" textLength="91.6919" x="258.1211" y="282.1606">Bloquea plaza</text></g><g class="message" data-participant-1="Parking" data-participant-2="App"><polygon fill="#181818" points="262.1211,312.3594,252.1211,316.3594,262.1211,320.3594,258.1211,316.3594" style="stroke:#181818;stroke-width:1;"/><line style="stroke:#181818;stroke-width:1;stroke-dasharray:2.0,2.0;" x1="256.1211" x2="457.1494" y1="316.3594" y2="316.3594"/><text fill="#000000" font-family="sans-serif" font-size="13" lengthAdjust="spacing" textLength="140.5181" x="268.1211" y="311.2935">Genera QR de acceso</text></g><g class="message" data-participant-1="App" data-participant-2="Cliente"><polygon fill="#181818" points="43.5718,341.4922,33.5718,345.4922,43.5718,349.4922,39.5718,345.4922" style="stroke:#181818;stroke-width:1;"/><line style="stroke:#181818;stroke-width:1;" x1="37.5718" x2="250.1211" y1="345.4922" y2="345.4922"/><text fill="#000000" font-family="sans-serif" font-size="13" lengthAdjust="spacing" textLength="121.8369" x="49.5718" y="340.4263">Muestra QR + ruta</text></g><!--SRC=[RP1DJiCm48NtFSKegrQeGcAP1H8D5MoGe3t1r1cYQHtR-2SBRiC1E4KlnjXD04NTZQLFxttFgABrq6Wc4mbWuT17LkpGHAWUd8Dd6qbNW07oQmRiEKJg4LxHdzXq1HllETgSlthq60hJOBc5MKpLw_jSKCEUD2d5rY1Ksn2nd7rcR2LybX1qBAcXiIOa7H6Snaz9R3auQ_YWAQTFBkif_P66H7eWwD4XB0VoBTrwUxGheUSgMyqTNO9XISTQHgG3avUspLsr-hCPvzImeqv-nAF4Ht_-LabZpXtN_bg8z3lx7g_isMZxaMYSSst14ncIWhSTj0Ie50NxJ-Ioe8QNHCL3i1lmAU8F]--></g></svg>