<svg xmlns="http://www.w3.org/2000/svg" xmlns:xlink="http://www.w3.org/1999/xlink" contentStyleType="text/css" data-diagram-type="SEQUENCE" height="444px" preserveAspectRatio="none" style="width:915px;height:444px;background:#FFFFFF;" version="1.1" viewBox="0 0 915 444" width="915px" zoomAndPan="magnify"><defs/><g><g><title>Cliente</title><rect fill="#000000" fill-opacity="0.00000" height="282.1953" width="8" x="28.5718" y="81.2969"/><line style="stroke:#181818;stroke-width:0.5;stroke-dasharray:5.0,5.0;" x1="32" x2="32" y1="81.2969" y2="363.4922"/></g><g><title>App Hotel</title><rect fill="#000000" fill-opacity="0.00000" height="282.1953" width="8" x="269.8267" y="81.2969"/><line style="stroke:#181818;stroke-width:0.5;stroke-dasharray:5.0,5.0;" x1="273.3838" x2="273.3838" y1="81.2969" y2="363.4922"/></g><g><title>Recepcion</title><rect fill="#000000" fill-opacity="0.00000" height="282.1953" width="8" x="460.4209" y="81.2969"/><line style="stroke:#181818;stroke-width:0.5;stroke-dasharray:5.0,5.0;" x1="464.1392" x2="464.1392" y1="81.2969" y2="363.4922"/></g><g><title>Sistema Habitaciones</title><rect fill="#000000" fill-opacity="0.00000" height="282.1953" width="8" x="685.5845" y="81.2969"/><line style="stroke:#181818;stroke-width:0.5;stroke-dasharray:5.0,5.0;" x1="688.7227" x2="688.7227" y1="81.2969" y2="363.4922"/></g><g><title>Sistema Parking</title><rect fill="#000000" fill-opacity="0.00000" height="282.1953" width="8" x="842.1333" y="81.2969"/><line style="stroke:#181818;stroke-width:0.5;stroke-dasharray:5.0,5.0;" x1="845.4463" x2="845.4463" y1="81.2969" y2="363.4922"/></g><g class="participant participant-head" data-participant="Cliente"><text fill="#000000" font-family="sans-serif" font-size="14" lengthAdjust="spacing" textLength="49.1436" x="5" y="77.9951">Cliente</text><ellipse cx="32.5718" cy="13.5" fill="#E2E2F0" rx="8" ry="8" style="stroke:#181818;stroke-width:0.5;"/><path d="M32.5718,21.5 L32.5718,48.5 M19.5718,29.5 L45.5718,29.5 M32.5718,48.5 L19.5718,63.5 M32.5718,48.5 L45.5718,63.5" fill="none" style="stroke:#181818;stroke-width:0.5;"/></g><g class="participant participant-tail" data-participant="Cliente"><text fill="#000000" font-family="sans-serif" font-size="14" lengthAdjust="spacing" textLength="49.1436" x="5" y="375.4873">Cliente</text><ellipse cx="32.5718" cy="387.2891" fill="#E2E2F0" rx="8" ry="8" style="stroke:#181818;stroke-width:0.5;"/><path d="M32.5718,395.2891 L32.5718,422.2891 M19.5718,403.2891 L45.5718,403.2891 M32.5718,422.2891 L19.5718,437.2891 M32.5718,422.2891 L45.5718,437.2891" fill="none" style="stroke:#181818;stroke-width:0.5;"/></g><g class="participant participant-head" data-participant="App"><rect fill="#E2E2F0" height="30.2969" rx="2.5" ry="2.5" style="stroke:#181818;stroke-width:0.5;" width="82.8857" x="232.3838" y="50"/><text fill="#000000" font-family="sans-serif" font-size="14" lengthAdjust="spacing" textLength="68.8857" x="239.3838" y="69.9951">App Hotel</text></g><g class="participant participant-tail" data-participant="App"><rect fill="#E2E2F0" height="30.2969" rx="2.5" ry="2.5" style="stroke:#181818;stroke-width:0.5;" width="82.8857" x="232.3838" y="362.4922"/><text fill="#000000" font-family="sans-serif" font-size="14" lengthAdjust="spacing" textLength="68.8857" x="239.3838" y="382.4873">App Hotel</text></g><g class="participant participant-head" data-participant="Recepcion"><rect fill="#E2E2F0" height="30.2969" rx="2.5" ry="2.5" style="stroke:#181818;stroke-width:0.5;" width="86.5635" x="421.1392" y="50"/><text fill="#000000" font-family="sans-serif" font-size="14" lengthAdjust="spacing" textLength="72.5635" x="428.1392" y="69.9951">Recepcion</text></g><g class="participant participant-tail" data-participant="Recepcion"><rect fill="#E2E2F0" height="30.2969" rx="2.5" ry="2.5" style="stroke:#181818;stroke-width:0.5;" width="86.5635" x="421.1392" y="362.4922"/><text fill="#000000" font-family="sans-serif" font-size="14" lengthAdjust="spacing" textLength="72.5635" x="428.1392" y="382.4873">Recepcion</text></g><g class="participant participant-head" data-participant="Habitacion"><rect fill="#E2E2F0" height="30.2969" rx="2.5" ry="2.5" style="stroke:#181818;stroke-width:0.5;" width="165.7236" x="606.7227" y="50"/><text fill="#000000" font-family="sans-serif" font-size="14" lengthAdjust="spacing" textLength="151.7236" x="613.7227" y="69.9951">Sistema Habitaciones</text></g><g class="participant participant-tail" data-participant="Habitacion"><rect fill="#E2E2F0" height="30.2969" rx="2.5" ry="2.5" style="stroke:#181818;stroke-width:0.5;" width="165.7236" x="606.7227" y="362.4922"/><text fill="#000000" font-family="sans-serif" font-size="14" lengthAdjust="spacing" textLength="151.7236" x="613.7227" y="382.4873">Sistema Habitaciones</text></g><g class="participant participant-head" data-participant="Parking"><rect fill="#E2E2F0" height="30.2969" rx="2.5" ry="2.5" style="stroke:#181818;stroke-width:0.5;" width="127.374" x="782.4463" y="50"/><text fill="#000000" font-family="sans-serif" font-size="14" lengthAdjust="spacing" textLength="113.374" x="789.4463" y="69.9951">Sistema Parking</text></g><g class="participant participant-tail" data-participant="Parking"><rect fill="#E2E2F0" height="30.2969" rx="2.5" ry="2.5" style="stroke:#181818;stroke-width:0.5;" width="127.374" x="782.4463" y="362.4922"/><text fill="#000000" font-family="sans-serif" font-size="14" lengthAdjust="spacing" textLength="113.374" x="789.4463" y="382.4873">Sistema Parking</text></g><g class="message" data-participant-1="Cliente" data-participant-2="App"><polygon fill="#181818" points="261.8267,108.4297,271.8267,112.4297,261.8267,116.4297,265.8267,112.4297" style="stroke:#181818;stroke-width:1;"/><line style="stroke:#181818;stroke-width:1;" x1="32.5718" x2="267.8267" y1="112.4297" y2="112.4297"/><text fill="#000000" font-family="sans-serif" font-size="13" lengthAdjust="spacing" textLength="217.2549" x="39.5718" y="107.3638">Registra matr&#237;cula + tipo parking</text></g><g class="message" data-participant-1="App" data-participant-2="Recepcion"><polygon fill="#181818" points="452.4209,137.5625,462.4209,141.5625,452.4209,145.5625,456.4209,141.5625" style="stroke:#181818;stroke-width:1;"/><line style="stroke:#181818;stroke-width:1;" x1="273.8267" x2="458.4209" y1="141.5625" y2="141.5625"/><text fill="#000000" font-family="sans-serif" font-size="13" lengthAdjust="spacing" textLength="160.9194" x="280.8267" y="136.4966">Env&#237;a datos pre-check-in</text></g><g class="message" data-participant-1="Recepcion" data-participant-2="Parking"><polygon fill="#181818" points="834.1333,166.6953,844.1333,170.6953,834.1333,174.6953,838.1333,170.6953" style="stroke:#181818;stroke-width:1;"/><line style="stroke:#181818;stroke-width:1;" x1="464.4209" x2="840.1333" y1="170.6953" y2="170.6953"/><text fill="#000000" font-family="sans-serif" font-size="13" lengthAdjust="spacing" textLength="163.3506" x="471.4209" y="165.6294">Reserva plaza (ej: "12A")</text></g><g class="message" data-participant-1="Parking" data-participant-2="Recepcion"><polygon fill="#181818" points="475.4209,195.8281,465.4209,199.8281,475.4209,203.8281,471.4209,199.8281" style="stroke:#181818;stroke-width:1;"/><line style="stroke:#181818;stroke-width:1;stroke-dasharray:2.0,2.0;" x1="469.4209" x2="845.1333" y1="199.8281" y2="199.8281"/><text fill="#000000" font-family="sans-serif" font-size="13" lengthAdjust="spacing" textLength="59.4331" x="481.4209" y="194.7622">Confirma</text></g><g class="message" data-participant-1="Recepcion" data-participant-2="Habitacion"><polygon fill="#181818" points="677.5845,224.9609,687.5845,228.9609,677.5845,232.9609,681.5845,228.9609" style="stroke:#181818;stroke-width:1;"/><line style="stroke:#181818;stroke-width:1;" x1="464.4209" x2="683.5845" y1="228.9609" y2="228.9609"/><text fill="#000000" font-family="sans-serif" font-size="13" lengthAdjust="spacing" textLength="201.1636" x="471.4209" y="223.895">Prepara habitaci&#243;n (amenities)</text></g><g class="message" data-participant-1="Habitacion" data-participant-2="Recepcion"><polygon fill="#181818" points="475.4209,254.0938,465.4209,258.0938,475.4209,262.0938,471.4209,258.0938" style="stroke:#181818;stroke-width:1;"/><line style="stroke:#181818;stroke-width:1;stroke-dasharray:2.0,2.0;" x1="469.4209" x2="688.5845" y1="258.0938" y2="258.0938"/><text fill="#000000" font-family="sans-serif" font-size="13" lengthAdjust="spacing" textLength="18.7573" x="481.4209" y="253.0278">OK</text></g><g class="message" data-participant-1="Recepcion" data-participant-2="App"><polygon fill="#181818" points="284.8267,283.2266,274.8267,287.2266,284.8267,291.2266,280.8267,287.2266" style="stroke:#181818;stroke-width:1;"/><line style="stroke:#181818;stroke-width:1;stroke-dasharray:2.0,2.0;" x1="278.8267" x2="463.4209" y1="287.2266" y2="287.2266"/><text fill="#000000" font-family="sans-serif" font-size="13" lengthAdjust="spacing" textLength="166.5942" x="290.8267" y="282.1606">Notifica "Habitaci&#243;n lista"</text></g><g class="message" data-participant-1="Cliente" data-participant-2="Recepcion"><polygon fill="#181818" points="452.4209,312.3594,462.4209,316.3594,452.4209,320.3594,456.4209,316.3594" style="stroke:#181818;stroke-width:1;"/><line style="stroke:#181818;stroke-width:1;" x1="32.5718" x2="458.4209" y1="316.3594" y2="316.3594"/><text fill="#000000" font-family="sans-serif" font-size="13" lengthAdjust="spacing" textLength="221.5205" x="39.5718" y="311.2935">Entrega documento (f&#237;sico/digital)</text></g><g class="message" data-participant-1="Recepcion" data-participant-2="Cliente"><polygon fill="#181818" points="43.5718,341.4922,33.5718,345.4922,43.5718,349.4922,39.5718,345.4922" style="stroke:#181818;stroke-width:1;"/><line style="stroke:#181818;stroke-width:1;" x1="37.5718" x2="463.4209" y1="345.4922" y2="345.4922"/><text fill="#000000" font-family="sans-serif" font-size="13" lengthAdjust="spacing" textLength="227.4048" x="49.5718" y="340.4263">Entrega tarjeta magn&#233;tica + mapa</text></g><!--SRC=[TP5DQiCm48NtESNWLK8mfLrwKGYXO2YqeJt1L9auapYIa2PPz4PTUDKZ-68T1IV-WUuaCTzxRvxGY0kmhfci4C3COn0sxD4AP2lleNH2TGOO8Tt60nzao1jsTWf-SXGw8PJunO9fWk9Let_u3zbWEBAjhjFTMKTdjuJvSyfHg7MbG40ueOIsCUSQOGd2te6_Kocn0lUO1RpOIziWR55S11yeDtionvnJd7uRPJhhP1GfN11yZTy8SpeKa3q-hRA54hTy-TXaxUoEW-uoqUoNBs0JI7CYxBktzjV274zaMPXY4XzKDT5_VnqhtpfvSy8xDWXPEL2jjIVCb1XKE6f40bLQYJDdjHS7yrtRH3RkOSkLgjIBwHwTKCyAXWD9-elAjZ-I8Yprul4F]--></g></svg>