<svg xmlns="http://www.w3.org/2000/svg" xmlns:xlink="http://www.w3.org/1999/xlink" contentStyleType="text/css" data-diagram-type="SEQUENCE" height="386px" preserveAspectRatio="none" style="width:616px;height:386px;background:#FFFFFF;" version="1.1" viewBox="0 0 616 386" width="616px" zoomAndPan="magnify"><defs/><g><g><title>Cliente</title><rect fill="#000000" fill-opacity="0.00000" height="223.9297" width="8" x="28.5718" y="81.2969"/><line style="stroke:#181818;stroke-width:0.5;stroke-dasharray:5.0,5.0;" x1="32" x2="32" y1="81.2969" y2="305.2266"/></g><g><title>App Hotel</title><rect fill="#000000" fill-opacity="0.00000" height="223.9297" width="8" x="237.8535" y="81.2969"/><line style="stroke:#181818;stroke-width:0.5;stroke-dasharray:5.0,5.0;" x1="241.4106" x2="241.4106" y1="81.2969" y2="305.2266"/></g><g><title>Sistema Parking</title><rect fill="#000000" fill-opacity="0.00000" height="223.9297" width="8" x="455.8506" y="81.2969"/><line style="stroke:#181818;stroke-width:0.5;stroke-dasharray:5.0,5.0;" x1="459.1636" x2="459.1636" y1="81.2969" y2="305.2266"/></g><g><title>Limpieza</title><rect fill="#000000" fill-opacity="0.00000" height="223.9297" width="8" x="567.8599" y="81.2969"/><line style="stroke:#181818;stroke-width:0.5;stroke-dasharray:5.0,5.0;" x1="571.5376" x2="571.5376" y1="81.2969" y2="305.2266"/></g><g class="participant participant-head" data-participant="Cliente"><text fill="#000000" font-family="sans-serif" font-size="14" lengthAdjust="spacing" textLength="49.1436" x="5" y="77.9951">Cliente</text><ellipse cx="32.5718" cy="13.5" fill="#E2E2F0" rx="8" ry="8" style="stroke:#181818;stroke-width:0.5;"/><path d="M32.5718,21.5 L32.5718,48.5 M19.5718,29.5 L45.5718,29.5 M32.5718,48.5 L19.5718,63.5 M32.5718,48.5 L45.5718,63.5" fill="none" style="stroke:#181818;stroke-width:0.5;"/></g><g class="participant participant-tail" data-participant="Cliente"><text fill="#000000" font-family="sans-serif" font-size="14" lengthAdjust="spacing" textLength="49.1436" x="5" y="317.2217">Cliente</text><ellipse cx="32.5718" cy="329.0234" fill="#E2E2F0" rx="8" ry="8" style="stroke:#181818;stroke-width:0.5;"/><path d="M32.5718,337.0234 L32.5718,364.0234 M19.5718,345.0234 L45.5718,345.0234 M32.5718,364.0234 L19.5718,379.0234 M32.5718,364.0234 L45.5718,379.0234" fill="none" style="stroke:#181818;stroke-width:0.5;"/></g><g class="participant participant-head" data-participant="App"><rect fill="#E2E2F0" height="30.2969" rx="2.5" ry="2.5" style="stroke:#181818;stroke-width:0.5;" width="82.8857" x="200.4106" y="50"/><text fill="#000000" font-family="sans-serif" font-size="14" lengthAdjust="spacing" textLength="68.8857" x="207.4106" y="69.9951">App Hotel</text></g><g class="participant participant-tail" data-participant="App"><rect fill="#E2E2F0" height="30.2969" rx="2.5" ry="2.5" style="stroke:#181818;stroke-width:0.5;" width="82.8857" x="200.4106" y="304.2266"/><text fill="#000000" font-family="sans-serif" font-size="14" lengthAdjust="spacing" textLength="68.8857" x="207.4106" y="324.2217">App Hotel</text></g><g class="participant participant-head" data-participant="Parking"><rect fill="#E2E2F0" height="30.2969" rx="2.5" ry="2.5" style="stroke:#181818;stroke-width:0.5;" width="127.374" x="396.1636" y="50"/><text fill="#000000" font-family="sans-serif" font-size="14" lengthAdjust="spacing" textLength="113.374" x="403.1636" y="69.9951">Sistema Parking</text></g><g class="participant participant-tail" data-participant="Parking"><rect fill="#E2E2F0" height="30.2969" rx="2.5" ry="2.5" style="stroke:#181818;stroke-width:0.5;" width="127.374" x="396.1636" y="304.2266"/><text fill="#000000" font-family="sans-serif" font-size="14" lengthAdjust="spacing" textLength="113.374" x="403.1636" y="324.2217">Sistema Parking</text></g><g class="participant participant-head" data-participant="Limpieza"><rect fill="#E2E2F0" height="30.2969" rx="2.5" ry="2.5" style="stroke:#181818;stroke-width:0.5;" width="76.6445" x="533.5376" y="50"/><text fill="#000000" font-family="sans-serif" font-size="14" lengthAdjust="spacing" textLength="62.6445" x="540.5376" y="69.9951">Limpieza</text></g><g class="participant participant-tail" data-participant="Limpieza"><rect fill="#E2E2F0" height="30.2969" rx="2.5" ry="2.5" style="stroke:#181818;stroke-width:0.5;" width="76.6445" x="533.5376" y="304.2266"/><text fill="#000000" font-family="sans-serif" font-size="14" lengthAdjust="spacing" textLength="62.6445" x="540.5376" y="324.2217">Limpieza</text></g><g class="message" data-participant-1="Cliente" data-participant-2="App"><polygon fill="#181818" points="229.8535,108.4297,239.8535,112.4297,229.8535,116.4297,233.8535,112.4297" style="stroke:#181818;stroke-width:1;"/><line style="stroke:#181818;stroke-width:1;" x1="32.5718" x2="235.8535" y1="112.4297" y2="112.4297"/><text fill="#000000" font-family="sans-serif" font-size="13" lengthAdjust="spacing" textLength="117.457" x="39.5718" y="107.3638">Click "Salir ahora"</text></g><g class="message" data-participant-1="App" data-participant-2="Parking"><polygon fill="#181818" points="447.8506,137.5625,457.8506,141.5625,447.8506,145.5625,451.8506,141.5625" style="stroke:#181818;stroke-width:1;"/><line style="stroke:#181818;stroke-width:1;" x1="241.8535" x2="453.8506" y1="141.5625" y2="141.5625"/><text fill="#000000" font-family="sans-serif" font-size="13" lengthAdjust="spacing" textLength="161.5542" x="248.8535" y="136.4966">Verifica tiempo de salida</text></g><g class="message" data-participant-1="Parking" data-participant-2="App"><polygon fill="#181818" points="252.8535,166.6953,242.8535,170.6953,252.8535,174.6953,248.8535,170.6953" style="stroke:#181818;stroke-width:1;"/><line style="stroke:#181818;stroke-width:1;stroke-dasharray:2.0,2.0;" x1="246.8535" x2="458.8506" y1="170.6953" y2="170.6953"/><text fill="#000000" font-family="sans-serif" font-size="13" lengthAdjust="spacing" textLength="193.9971" x="258.8535" y="165.6294">Calcula cargo extra (si aplica)</text></g><g class="message" data-participant-1="App" data-participant-2="Cliente"><polygon fill="#181818" points="43.5718,195.8281,33.5718,199.8281,43.5718,203.8281,39.5718,199.8281" style="stroke:#181818;stroke-width:1;"/><line style="stroke:#181818;stroke-width:1;" x1="37.5718" x2="240.8535" y1="199.8281" y2="199.8281"/><text fill="#000000" font-family="sans-serif" font-size="13" lengthAdjust="spacing" textLength="185.2817" x="49.5718" y="194.7622">Muestra factura simplificada</text></g><g class="message" data-participant-1="Cliente" data-participant-2="Parking"><polygon fill="#181818" points="447.8506,224.9609,457.8506,228.9609,447.8506,232.9609,451.8506,228.9609" style="stroke:#181818;stroke-width:1;"/><line style="stroke:#181818;stroke-width:1;" x1="32.5718" x2="453.8506" y1="228.9609" y2="228.9609"/><text fill="#000000" font-family="sans-serif" font-size="13" lengthAdjust="spacing" textLength="142.8032" x="39.5718" y="223.895">Escanea QR para salir</text></g><g class="message" data-participant-1="Parking" data-participant-2="Cliente"><polygon fill="#181818" points="43.5718,254.0938,33.5718,258.0938,43.5718,262.0938,39.5718,258.0938" style="stroke:#181818;stroke-width:1;"/><line style="stroke:#181818;stroke-width:1;stroke-dasharray:2.0,2.0;" x1="37.5718" x2="458.8506" y1="258.0938" y2="258.0938"/><text fill="#000000" font-family="sans-serif" font-size="13" lengthAdjust="spacing" textLength="82.8369" x="49.5718" y="253.0278">Abre barrera</text></g><g class="message" data-participant-1="App" data-participant-2="Limpieza"><polygon fill="#181818" points="559.8599,283.2266,569.8599,287.2266,559.8599,291.2266,563.8599,287.2266" style="stroke:#181818;stroke-width:1;"/><line style="stroke:#181818;stroke-width:1;" x1="241.8535" x2="565.8599" y1="287.2266" y2="287.2266"/><text fill="#000000" font-family="sans-serif" font-size="13" lengthAdjust="spacing" textLength="183.1997" x="248.8535" y="282.1606">Notifica habitaci&#243;n a limpiar</text></g><!--SRC=[NP11JiCm44NtESLNLx3e1R90gX0I2q059FO_xhGTrKciiICXhiKHk1XsI5AKbMtfpVzlJ9TwmxrNwP80LQ0bTHhO9Mns8U2nJ-8tO4HvhO1tZKbQOa-xQ7SQiUc-Hf-q3IfV79dvaQ5gxjxUbOQwkBXBZgPN0y-zvH5KfJmJKtYD3p4zgYEIIXjw70GnJnnAv6omNIBftU09HplraCzan4rKCEGktbxZ9vSQpuF4GXtfqf3Fc8NzM3Ws_7DUZ1wYOoV4wnlouXnrR6MpvEyQ4pGq4-ErVlwM6Yzz-bllp4OJdVvyTo1y0MY_]--></g></svg>